<svg height="100" width="100" fill="#2c5282" xmlns="http://www.w3.org/2000/svg" viewBox="0 0 90 90"><path d="M46.106 41.937a1.974 1.974 0 00-1.942 2v2.74c-1.938.521-3.521 1.667-4.448 3.219-.995 1.661-1.183 3.849-.203 5.703.984 1.859 2.958 3.25 5.724 3.99 1.901.51 2.761 1.343 3.115 2.041.354.703.313 1.381-.084 2.063-.791 1.364-3.281 2.797-7.786.563a1.976 1.976 0 10-1.75 3.542c1.906.948 3.745 1.401 5.433 1.479v2.386a1.975 1.975 0 103.948 0v-3.006c1.558-.614 2.797-1.65 3.568-2.979 1.005-1.729 1.15-3.942.192-5.833s-2.917-3.35-5.609-4.073c-2.042-.547-2.922-1.386-3.255-2.015-.334-.63-.287-1.193.094-1.828.766-1.281 3.135-2.609 6.791-.72a1.98 1.98 0 002.667-.848c.5-.969.12-2.162-.849-2.667a12.111 12.111 0 00-3.6-1.199v-2.557a1.97 1.97 0 00-2.006-2.001zM35.727 29.66h3.041l-2.161 5.267c-.781 2 2.183 3.224 3.042 1.25l2.677-6.517h5.406l2.677 6.517a1.643 1.643 0 002.162.926 1.643 1.643 0 00.88-2.176L51.29 29.66h3.016c3.641 2.36 9.036 7.787 13.416 13.891 4.453 6.219 7.792 13.153 7.792 17.464 0 7.281-3.656 12.579-9.359 16.271-5.698 3.699-13.458 5.62-21.136 5.62-7.672 0-15.427-1.921-21.125-5.62-5.697-3.691-9.354-8.989-9.354-16.271 0-4.312 3.338-11.246 7.791-17.464 4.369-6.104 9.76-11.53 13.396-13.891zm1.906-7.41h14.791c.938 0 1.641.703 1.641 1.64v.85c0 .938-.703 1.635-1.641 1.635H37.633c-.938 0-1.641-.697-1.641-1.635v-.85c0-.937.703-1.64 1.641-1.64zM50.711 7.088c1.489.006 3.797.833 6.255 1.859l-5.317 10.016H38.341l-5.183-9.756c1.531-.192 3.542-.203 5.604 1.047.104.072.208.146.317.213.037.072.073.14.115.208l3.067 4.803a1.64 1.64 0 002.323.593c.797-.511 1-1.588.442-2.355l-2.005-3.15c.072-.037.15-.074.219-.115 1.197-.667 2.094-1.536 3.213-2.203 1.117-.67 2.383-1.17 4.258-1.16zm.016-3.292c-2.526-.016-4.49.755-5.959 1.631-1.463.875-2.505 1.812-3.13 2.161-.313.176-.458.192-.531.192s-.177.005-.511-.244c-.041-.032-.083-.057-.13-.089-4.906-2.973-10.355-1.041-10.355-1.041a1.646 1.646 0 00-.927 2.333l5.839 10.995c-1.381.88-2.318 2.412-2.318 4.156v.85c0 .896.266 1.729.693 2.458-4.234 2.917-9.381 8.343-13.74 14.437-4.646 6.484-8.411 13.537-8.411 19.38 0 8.416 4.458 14.891 10.854 19.036 6.391 4.146 14.703 6.141 22.916 6.141 8.219 0 16.526-1.994 22.922-6.141 6.401-4.146 10.87-10.62 10.87-19.036 0-5.85-3.766-12.896-8.417-19.38-4.364-6.084-9.505-11.51-13.739-14.427a4.81 4.81 0 00.692-2.468v-.85c0-1.765-.953-3.312-2.364-4.182L60.804 8.74a1.647 1.647 0 00-.709-2.234c-3.801-1.928-6.843-2.693-9.368-2.71z"/></svg>